# xmcd
#
# Track frame offsets: 
#        150
#        15793
#        27395
#        46482
#        64519
#        78806
#        97968
#        117205
#        133367
#        151404
#        171316
#        202478
#        226488
#        241900
#        258298
#        274835
#        289497
#        307395
#        325432
#
# Disc length: 4538 seconds
#
# Revision: 0
# Processed by: cddbd v1.5.2PL0 Copyright (c) Steve Scherf et al.
# Submitted via: ExactAudioCopyFreeDBPlugin 1.0
#
DISCID=1711b813
DTITLE=Various Artist - 5th European Blues Challenge
DYEAR=2015
DGENRE=Sampler Blues
TTITLE0=Hermann Posch and Christian Sandera - Devil's Woman
TTITLE1=Doghouse Sam and His Magnatones - Something's Wrong
TTITLE2=Delta Blues Gang - Last Phone Call
TTITLE3=Bound By Law - The Live One
TTITLE4=Micke Bjorklof and Blue Strip - Ramblified
TTITLE5=Pillac - Never Make Your Move Too Soon
TTITLE6=Jessy Martens Band - You're Not The One I Need
TTITLE7=Eles Garbor Trio - Empty Living Room
TTITLE8=Dave Moretti Blues Revue - That's Swing!
TTITLE9=Remo Cavallini Band - Self Control
TTITLE10=Leif De Leeuw Band - Once And For All
TTITLE11=J.T. Lauritsen and The Buckshot Hunters - Play By The Rules
TTITLE12=Drunk Lamb - Sleep Honey
TTITLE13=Marius Dobra Band - What About You
TTITLE14=Jergus Oravec Trio - Real
TTITLE15=The Travellin' Brothers - Magnolia Route
TTITLE16=Lisa Listam Family Band - Soakin' Wet (The Blues Makes Me)
TTITLE17=The Two - On And On
TTITLE18=Laurence Jones - Soul Swamp River
EXTD=
EXTT0=
EXTT1=
EXTT2=
EXTT3=
EXTT4=
EXTT5=
EXTT6=
EXTT7=
EXTT8=
EXTT9=
EXTT10=
EXTT11=
EXTT12=
EXTT13=
EXTT14=
EXTT15=
EXTT16=
EXTT17=
EXTT18=
PLAYORDER=
